<svg width="49" height="49" viewBox="0 0 49 49" fill="none" xmlns="http://www.w3.org/2000/svg">
<circle cx="24.5" cy="24.5" r="24.5" fill="#F9F9F9"/>
<path d="M30.1157 18.6957V16.558C30.1157 15.8919 29.9845 15.2323 29.7296 14.6169C29.4747 14.0015 29.101 13.4423 28.63 12.9713C28.159 12.5003 27.5998 12.1266 26.9844 11.8717C26.369 11.6168 25.7094 11.4856 25.0433 11.4856C24.3772 11.4856 23.7176 11.6168 23.1021 11.8717C22.4867 12.1266 21.9276 12.5003 21.4565 12.9713C20.9855 13.4423 20.6119 14.0015 20.357 14.6169C20.1021 15.2323 19.9709 15.8919 19.9709 16.558V21.6304C19.9709 21.8226 20.0472 22.0069 20.1831 22.1428C20.319 22.2787 20.5033 22.3551 20.6955 22.3551C20.8877 22.3551 21.072 22.2787 21.2079 22.1428C21.3438 22.0069 21.4201 21.8226 21.4201 21.6304V20.1449H27.2172V18.6957H21.4201V16.558C21.4201 15.5971 21.8018 14.6755 22.4813 13.9961C23.1608 13.3166 24.0824 12.9349 25.0433 12.9349C26.0042 12.9349 26.9258 13.3166 27.6052 13.9961C28.2847 14.6755 28.6664 15.5971 28.6664 16.558V21.5942C28.6664 21.7864 28.7428 21.9707 28.8787 22.1066C29.0146 22.2425 29.1989 22.3188 29.3911 22.3188C29.5833 22.3188 29.7676 22.2425 29.9035 22.1066C30.0394 21.9707 30.1157 21.7864 30.1157 21.5942V20.1449H33.7389V33.1883H16.3477V20.1449H18.5216V18.6957H14.8984V33.2535C14.8984 33.6206 15.0443 33.9726 15.3038 34.2322C15.5634 34.4918 15.9154 34.6376 16.2825 34.6376H33.8041C34.1712 34.6376 34.5232 34.4918 34.7827 34.2322C35.0423 33.9726 35.1881 33.6206 35.1881 33.2535V18.6957H30.1157Z" fill="#292D32"/>
</svg>
